<svg width="36" height="42" viewBox="0 0 36 42" fill="none" xmlns="http://www.w3.org/2000/svg">
<path d="M0.0512695 36.5723H0.423926V37.7372C0.59098 37.3532 0.886535 37.0332 1.29774 36.8028C1.70895 36.5723 2.17156 36.4443 2.65987 36.4443C3.30238 36.4443 3.81639 36.6492 4.18905 37.0588C4.5617 37.4684 4.75446 38.0317 4.75446 38.7613V41.8079H4.3818V38.7613C4.3818 38.1341 4.2276 37.6476 3.91919 37.302C3.61079 36.9564 3.18673 36.7772 2.63417 36.7772C2.23581 36.7772 1.86315 36.8668 1.5162 37.046C1.18209 37.2252 0.912236 37.4812 0.706632 37.8012C0.513878 38.1213 0.411076 38.4797 0.411076 38.8765V41.8079H0.0512695V36.5723Z" fill="white"/>
<path d="M7.29877 41.6031C6.87471 41.347 6.54061 41.0014 6.29645 40.5662C6.0523 40.131 5.93665 39.6701 5.93665 39.1709C5.93665 38.6716 6.06515 38.2108 6.3093 37.7884C6.55346 37.3659 6.88756 37.0203 7.31162 36.7771C7.73568 36.5211 8.21114 36.3931 8.72515 36.3931C9.23916 36.3931 9.70177 36.5211 10.1258 36.7771C10.5499 37.0331 10.884 37.3659 11.1281 37.7884C11.3723 38.2108 11.488 38.6716 11.488 39.1709C11.488 39.6957 11.3723 40.1694 11.141 40.5918C10.9097 41.027 10.5884 41.3598 10.1644 41.6159C9.75317 41.8719 9.27771 41.9999 8.738 41.9999C8.19829 41.9999 7.72283 41.8591 7.29877 41.6031ZM9.94592 41.3342C10.3057 41.1038 10.6013 40.8094 10.8069 40.4382C11.0125 40.0669 11.1153 39.6445 11.1153 39.1965C11.1153 38.7484 11.0125 38.3388 10.794 37.9676C10.5884 37.5836 10.2929 37.2891 9.93307 37.0587C9.57327 36.8283 9.16206 36.7259 8.72515 36.7259C8.28824 36.7259 7.87703 36.8411 7.50438 37.0715C7.13172 37.3019 6.84901 37.6092 6.63056 37.9804C6.4121 38.3644 6.3093 38.774 6.3093 39.2093C6.3093 39.6445 6.4121 40.0541 6.63056 40.4382C6.84901 40.8094 7.13172 41.1166 7.50438 41.3342C7.87703 41.5647 8.28824 41.6671 8.738 41.6671C9.17491 41.6671 9.58612 41.5519 9.94592 41.3342Z" fill="white"/>
<path d="M16.9108 36.5723L14.3279 41.9615L11.7322 36.5723H12.1434L14.3279 41.1038L16.4996 36.5723H16.9108Z" fill="white"/>
<path d="M17.8746 35.2669C17.7975 35.1901 17.7461 35.0877 17.7461 34.9725C17.7461 34.8701 17.7846 34.7677 17.8746 34.6909C17.9517 34.6141 18.0545 34.5757 18.1573 34.5757C18.2601 34.5757 18.3629 34.6141 18.44 34.6909C18.5171 34.7677 18.5685 34.8573 18.5685 34.9725C18.5685 35.0877 18.53 35.1901 18.44 35.2669C18.3629 35.3437 18.2601 35.3821 18.1573 35.3821C18.0545 35.3821 17.9645 35.3437 17.8746 35.2669ZM17.9774 36.5726H18.3501V41.8082H17.9774V36.5726Z" fill="white"/>
<path d="M20.0848 33.1162H20.4575V38.3902L22.5392 36.5725H23.0147L20.6117 38.659L23.6186 41.7953H23.1303L20.4703 39.0047V41.7953H20.0977V33.1162H20.0848Z" fill="white"/>
<path d="M25.2121 41.6031C24.788 41.347 24.4539 41.0014 24.2098 40.5662C23.9656 40.131 23.85 39.6701 23.85 39.1709C23.85 38.6716 23.9785 38.2108 24.2226 37.7884C24.4668 37.3659 24.8009 37.0203 25.225 36.7771C25.649 36.5211 26.1245 36.3931 26.6385 36.3931C27.1525 36.3931 27.6151 36.5211 28.0392 36.7771C28.4632 37.0331 28.7973 37.3659 29.0415 37.7884C29.2856 38.2108 29.4013 38.6716 29.4013 39.1709C29.4013 39.6957 29.2856 40.1694 29.0543 40.5918C28.823 41.027 28.5018 41.3598 28.0777 41.6159C27.6665 41.8719 27.191 41.9999 26.6513 41.9999C26.1245 41.9999 25.6362 41.8591 25.2121 41.6031ZM27.8593 41.3342C28.2191 41.1038 28.5146 40.8094 28.7202 40.4382C28.9258 40.0669 29.0286 39.6445 29.0286 39.1965C29.0286 38.7484 28.9258 38.3388 28.7074 37.9676C28.5018 37.5836 28.2062 37.2891 27.8464 37.0587C27.4866 36.8283 27.0754 36.7259 26.6385 36.7259C26.1887 36.7259 25.7904 36.8411 25.4177 37.0715C25.045 37.3019 24.7623 37.6092 24.5439 37.9804C24.3254 38.3644 24.2226 38.774 24.2226 39.2093C24.2226 39.6445 24.3254 40.0541 24.5439 40.4382C24.7623 40.8094 25.045 41.1166 25.4177 41.3342C25.7904 41.5647 26.2016 41.6671 26.6513 41.6671C27.0882 41.6671 27.4994 41.5519 27.8593 41.3342Z" fill="white"/>
<path d="M34.8368 36.5723L32.2539 41.9615L29.6582 36.5723H30.0694L32.2539 41.1038L34.4256 36.5723H34.8368Z" fill="white"/>
<path d="M35.4667 1.92009C35.4667 12.0329 35.4667 22.1456 35.4667 32.2584C35.0298 32.1432 34.5929 32.0408 34.1688 31.9128C28.1163 30.1462 22.5393 27.3044 17.1422 24.117C17.0523 24.0658 16.988 23.989 16.8724 23.8866C17.335 23.1953 17.7719 22.5169 18.2345 21.8512C22.4108 15.8219 27.0241 10.1511 32.1642 4.90272C33.1922 3.85304 34.3616 2.91857 35.4667 1.92009Z" fill="white"/>
<path d="M0 14.5931C0.758164 15.374 1.47778 16.1805 2.26164 16.9101C5.01159 19.4831 8.1599 21.4801 11.3982 23.349C11.6552 23.5026 11.8993 23.6562 12.2077 23.8354C10.3573 27.9062 8.35266 31.8489 5.5256 35.3179C3.68802 35.3179 1.83758 35.3179 0 35.3179C0 28.4182 0 21.5057 0 14.5931Z" fill="white"/>
<path d="M7.06761 35.3307C9.88181 32.1817 11.9507 28.559 13.8782 24.7955C14.1224 24.9107 14.3151 24.9875 14.495 25.0771C14.6621 25.1667 14.8292 25.2691 14.9705 25.3588C14.7392 26.0116 14.5079 26.6517 14.2894 27.2789C14.3794 27.3173 14.4693 27.3685 14.5721 27.4069C14.9448 26.8565 15.3046 26.3188 15.703 25.7172C15.9985 25.858 16.2812 25.9732 16.5639 26.114C21.28 28.495 26.0603 30.7352 31.0976 32.3865C32.5368 32.8601 34.0146 33.2314 35.4666 33.641C35.4666 34.1914 35.4666 34.7419 35.4666 35.3051C25.996 35.3307 16.5382 35.3307 7.06761 35.3307Z" fill="white"/>
<path d="M34.9526 0C32.087 2.41938 29.4913 5.10759 27.114 7.98781C23.3103 12.609 19.9307 17.5373 16.7695 22.6065C16.5896 22.8881 16.4097 23.1826 16.1784 23.541C15.8058 23.3106 15.4331 23.1442 15.1504 22.8881C15.0348 22.7857 15.0605 22.4273 15.1376 22.2353C16.2298 19.7135 17.3607 17.2045 18.4658 14.6827C20.2006 10.7272 21.9096 6.74611 23.6701 2.79061C24.0942 1.84334 24.6724 0.934471 25.1865 0C28.4376 0 31.6887 0 34.9526 0Z" fill="white"/>
<path d="M20.3034 0C19.0955 0.217617 17.8747 0.448034 16.6668 0.665651C12.7988 1.3569 8.93092 1.98415 5.2172 3.34105C3.34106 4.03231 1.59343 4.94118 0 6.14447C0 4.09631 0 2.04816 0 0C6.77208 0 13.5313 0 20.3034 0Z" fill="white"/>
<path d="M13.2358 21.6976C12.619 21.3008 12.0921 20.9807 11.5781 20.6351C8.99518 18.9326 6.33518 17.3069 4.11209 15.1179C3.12262 14.1322 2.18455 13.0313 1.47779 11.8408C0.308419 9.86949 0.783878 7.98775 2.59576 6.57964C4.3948 5.17154 6.51509 4.42908 8.68678 4.01945C12.7603 3.23859 16.8595 2.62414 20.9459 1.94569C20.9973 1.93289 21.0616 1.97129 21.1387 1.98409C18.5172 8.53819 15.8958 15.0795 13.2358 21.6976Z" fill="white"/>
</svg>
